PathFileType	4	(X/Y/Z)	jw_hip_rstar.trc	
DataRate	CameraRate	NumFrames	NumMarkers	Units	OrigDataRate	OrigDataStartFrame	OrigNumFrames	
120.00	120.00	23	8	mm	120.00	618	1647	
Frame#	Time	RAsis			LAsis			RPsis			LPsis			RThighSuperior			RThighInferior			RThighLateral			RPatella			
		X1	Y1	Z1	X2	Y2	Z2	X3	Y3	Z3	X4	Y4	Z4	X5	Y5	Z5	X6	Y6	Z6	X7	Y7	Z7	X8	Y8	Z8	

618	5.142	-399.66306	218.70506	1052.86550	-168.08800	103.38555	991.34314	-220.17863	354.67981	965.95325	-169.42496	327.19885	964.13220	-460.48514	222.03897	837.36017	-484.70956	75.80369	637.96606	-454.38239	72.02219	739.10950	-458.13245	11.31432	561.61688 
619	5.150	-399.70203	218.19565	1052.64320	-167.86259	103.31118	991.30817	-220.14702	354.58484	966.04675	-169.41399	327.09598	964.12378	-459.78189	221.90804	836.58350	-482.90518	76.31790	636.54468	-453.14551	72.18862	737.78400	-455.95667	12.08837	560.40851 
620	5.158	-399.72150	217.80989	1052.45730	-167.65332	103.38274	991.27551	-220.15852	354.54498	966.14691	-169.40921	327.07602	964.28210	-459.11035	221.76941	836.01251	-480.95694	76.96261	635.28894	-451.75745	72.58015	736.82947	-453.79031	12.58212	559.34613 
621	5.167	-399.64606	217.40471	1052.24910	-167.47566	103.47052	991.22693	-220.08681	354.53845	966.32684	-169.36087	327.02765	964.38110	-458.39990	221.69736	835.63788	-479.35468	77.45004	634.55621	-450.43872	72.76873	736.21594	-451.63470	12.84816	558.91498 
622	5.175	-399.50455	217.11061	1052.12290	-167.14719	103.62654	991.14465	-220.02673	354.51047	966.47516	-169.21663	327.05383	964.51001	-457.79156	221.63202	835.56464	-477.93063	77.54308	634.38348	-449.07300	72.80926	735.67969	-449.78842	12.79606	558.54663 
623	5.183	-399.35132	216.76001	1052.04690	-166.73639	103.82315	991.01361	-219.93759	354.46860	966.66895	-169.05299	327.09677	964.65295	-457.24731	221.36043	835.43854	-476.78546	77.11053	634.24249	-447.73758	72.72601	735.47729	-448.39114	12.57693	558.15887 
624	5.192	-399.24460	216.46216	1052.06050	-166.29927	104.00976	990.88007	-219.89203	354.40836	966.93054	-168.83640	327.17413	964.84772	-456.76028	220.92947	835.37366	-476.03506	76.29577	634.31256	-446.61612	72.57955	735.31702	-447.50806	12.46253	557.95837 
625	5.200	-399.21820	216.09563	1052.14750	-165.83394	104.21756	990.61346	-219.81851	354.46045	967.12018	-168.67651	327.34692	964.95416	-456.11859	220.31438	835.46533	-475.72833	75.67368	634.54584	-445.38403	72.37460	735.17291	-447.11102	12.47903	557.81689 
626	5.208	-399.05734	215.68462	1052.20400	-165.34528	104.35917	990.42639	-219.74667	354.53424	967.33221	-168.51830	327.57852	965.13501	-455.51682	219.60139	835.85260	-475.59158	75.32155	634.84320	-444.46860	72.00176	735.08264	-446.88385	12.57890	557.57941 
627	5.217	-398.85507	215.26013	1052.27160	-164.86244	104.49954	990.25000	-219.74039	354.62506	967.51990	-168.33655	328.12531	965.39642	-455.31967	218.99123	836.29340	-475.61816	75.00029	635.29517	-443.84988	71.59545	734.92267	-446.91818	12.54958	557.46906 
628	5.225	-398.59634	214.82645	1052.38040	-164.43719	104.69592	990.08325	-219.81894	354.72134	967.79535	-168.40535	328.61691	965.65533	-454.98175	218.29718	836.87506	-475.60583	74.42522	636.04456	-443.05215	71.31772	735.30511	-447.42838	12.36332	557.56293 
629	5.233	-398.25848	214.45187	1052.44460	-163.95670	104.96451	989.92474	-219.92000	354.88788	968.23602	-168.45938	329.07800	966.03638	-454.61713	217.44400	837.55634	-475.82288	73.81335	637.01764	-442.66116	71.08521	735.50201	-447.83340	12.16701	557.86768 
630	5.242	-397.95090	213.97865	1052.62050	-163.33444	105.26588	989.78247	-219.85559	355.15149	968.61877	-168.34537	329.53928	966.43591	-454.51892	216.83835	838.21381	-476.21820	73.35530	637.90222	-442.67358	70.82375	736.21747	-448.87723	11.71730	558.52832 
631	5.250	-397.62109	213.49489	1052.86840	-162.78777	105.51720	989.59137	-219.98141	355.34589	968.92828	-168.23267	329.97955	966.86511	-454.78674	216.54910	838.86951	-476.97363	72.77518	638.97192	-442.79831	70.66689	736.86676	-450.32080	11.29564	559.12189 
632	5.258	-397.38965	213.08234	1053.11760	-162.12932	105.77220	989.46411	-220.08717	355.50290	969.27582	-167.95992	330.58871	967.57776	-455.01312	216.51097	839.33917	-478.21713	72.34258	640.35699	-443.30347	70.45855	737.73401	-451.80515	10.78053	559.81201 
633	5.267	-397.09515	212.68755	1053.43470	-161.49498	106.07066	989.29346	-220.23743	355.72412	969.74414	-167.95203	330.89401	967.94476	-455.23557	216.68317	840.16687	-479.37115	72.02455	641.47766	-444.05548	70.35128	738.78210	-454.13843	10.43843	560.59869 
634	5.275	-396.76236	212.13158	1053.78200	-160.83562	106.29688	989.14111	-220.36305	355.93167	970.21381	-168.09200	331.29932	968.39355	-455.52948	217.00232	841.02765	-480.98383	71.61774	643.25427	-445.16226	70.33963	740.04163	-456.56143	9.93138	561.68329 
635	5.283	-396.31268	211.64624	1054.16760	-160.21356	106.64739	988.90845	-220.43884	356.12405	970.66077	-167.98186	331.94839	969.08191	-456.05527	217.58801	842.05011	-482.79108	71.44904	644.89209	-446.60397	70.46918	741.58429	-459.26944	9.52363	562.90662 
636	5.292	-395.72864	211.10310	1054.54140	-159.64897	106.99526	988.71411	-220.55518	356.34689	971.22906	-167.97176	332.42346	969.65912	-456.60938	218.11581	842.74396	-484.98419	71.22594	646.65991	-448.35385	70.66077	743.11627	-462.37036	8.66243	564.39453 
637	5.300	-395.23557	210.64313	1055.06860	-158.96561	107.37486	988.59668	-220.63199	356.71082	971.96118	-168.09918	332.86603	970.18463	-457.26566	218.91273	843.60565	-487.27261	70.91167	648.43225	-450.21490	70.73897	744.75391	-465.47498	7.98330	566.14862 
638	5.308	-394.78128	210.05721	1055.61330	-158.25182	107.81957	988.43781	-220.69693	356.99017	972.74487	-167.88916	333.64505	971.02618	-457.91528	219.69553	844.40369	-489.86414	70.60216	650.45819	-452.49576	70.80656	746.45776	-468.88037	7.21739	567.85681 
639	5.317	-394.18698	209.58806	1056.09530	-157.53236	108.31600	988.29907	-220.37794	357.65878	973.39557	-167.90935	334.28937	971.69214	-458.74722	220.57996	845.32843	-492.70868	70.57723	652.50226	-454.77362	71.08791	748.36841	-472.56973	6.59648	569.82880 
640	5.325	-393.70941	209.03055	1056.59450	-156.78140	108.78185	988.10425	-221.09833	357.12640	973.39612	-168.60265	334.04483	971.76404	-459.38586	221.26883	846.38495	-495.66608	70.32440	654.68964	-457.34256	71.15944	750.44763	-476.29880	5.93836	571.83356 
